<svg width="20" height="20" viewBox="0 0 20 20" fill="none" xmlns="http://www.w3.org/2000/svg">
  <g transform="translate(0,20) scale(0.00390625,-0.00390625)" fill="#4283EC" stroke="none">
    <path d="M2330 5110 c-891 -86 -1667 -619 -2060 -1415 -160 -324 -236 -605
    -262 -973 -24 -335 30 -719 147 -1038 51 -141 183 -402 263 -522 253 -380 599
    -690 991 -886 556 -280 1189 -347 1792 -192 429 110 811 325 1136 640 819 790
    1015 2010 488 3023 -125 240 -284 451 -488 650 -385 374 -869 614 -1402 694
    -151 23 -462 32 -605 19z m408 -2120 c380 -232 692 -426 692 -430 0 -4 -312
    -198 -692 -430 -381 -233 -703 -430 -715 -438 l-23 -14 0 882 0 882 23 -14
    c12 -8 334 -205 715 -438z"/>
  </g>
</svg>
